REM MD5 3191d31187c57140048dda78a1ae5758
FILE "Official U.S. PlayStation Magazine Demo Disc 05 (USA).bin" BINARY
  TRACK 01 MODE2/2352
    INDEX 01 00:00:00
  TRACK 02 AUDIO
    INDEX 00 22:10:00
    INDEX 01 22:12:00
  TRACK 03 AUDIO
    INDEX 00 24:42:06
    INDEX 01 24:44:06
  TRACK 04 AUDIO
    INDEX 00 24:50:02
    INDEX 01 24:52:02
REM LEADOUT 26:47:63
